OpenSansIPA-CondensedBoldItalic.ufo
<glyph name="sheva-hb" format="2">
	<advance width="0"/>
	<unicode hex="05B0"/>
	<anchor x="-165.8" y="-81" name="_bottom"/>
	<note>
		afii57799
	</note>
	<outline>
		<contour>
			<point x="-167.7" y="-274.1" type="curve" smooth="yes"/>
			<point x="-103.6" y="-274.1"/>
			<point x="-65.5" y="-233"/>
			<point x="-65.5" y="-177.3" type="curve" smooth="yes"/>
			<point x="-65.5" y="-129.6"/>
			<point x="-97.9" y="-101"/>
			<point x="-151.5" y="-101" type="curve" smooth="yes"/>
			<point x="-214" y="-101"/>
			<point x="-252.1" y="-143.6"/>
			<point x="-252.1" y="-198" type="curve" smooth="yes"/>
			<point x="-252.1" y="-251.4"/>
			<point x="-217.9" y="-274.1"/>
		</contour>
		<contour>
			<point x="-218.2" y="-515" type="curve" smooth="yes"/>
			<point x="-155.7" y="-515"/>
			<point x="-116.3" y="-473.1"/>
			<point x="-116.3" y="-419" type="curve" smooth="yes"/>
			<point x="-116.3" y="-366.7"/>
			<point x="-152.5" y="-341.6"/>
			<point x="-202" y="-341.6" type="curve" smooth="yes"/>
			<point x="-265.4" y="-341.6"/>
			<point x="-302.2" y="-384.3"/>
			<point x="-302.2" y="-438.6" type="curve" smooth="yes"/>
			<point x="-302.2" y="-490.6"/>
			<point x="-268.7" y="-515"/>
		</contour>
	</outline>
</glyph>
<glyph name="hatafsegol-hb" format="2">
	<advance width="0"/>
	<unicode hex="05B1"/>
	<anchor x="-146.5" y="-95.7" name="_bottom"/>
	<note>
		afii57801
	</note>
	<outline>
		<contour>
			<point x="-451.7" y="-288.8" type="curve" smooth="yes"/>
			<point x="-389.3" y="-288.8"/>
			<point x="-350.1" y="-248.1"/>
			<point x="-350.1" y="-192.4" type="curve" smooth="yes"/>
			<point x="-350.1" y="-140.1"/>
			<point x="-384.6" y="-115.7"/>
			<point x="-435.8" y="-115.7" type="curve" smooth="yes"/>
			<point x="-497.6" y="-115.7"/>
			<point x="-536.4" y="-158.3"/>
			<point x="-536.4" y="-213.4" type="curve" smooth="yes"/>
			<point x="-536.4" y="-261.9"/>
			<point x="-504.3" y="-288.8"/>
		</contour>
		<contour>
			<point x="-154.2" y="-288.8" type="curve" smooth="yes"/>
			<point x="-89.7" y="-288.8"/>
			<point x="-52.6" y="-250.2"/>
			<point x="-52.6" y="-193.8" type="curve" smooth="yes"/>
			<point x="-52.6" y="-142.9"/>
			<point x="-85.7" y="-115.7"/>
			<point x="-139.7" y="-115.7" type="curve" smooth="yes"/>
			<point x="-202.2" y="-115.7"/>
			<point x="-240.3" y="-159.7"/>
			<point x="-240.3" y="-213.4" type="curve" smooth="yes"/>
			<point x="-240.3" y="-261.9"/>
			<point x="-208.9" y="-288.8"/>
		</contour>
		<contour>
			<point x="109.2" y="-288.8" type="curve" smooth="yes"/>
			<point x="173.7" y="-288.8"/>
			<point x="212.5" y="-248.1"/>
			<point x="212.5" y="-193.4" type="curve" smooth="yes"/>
			<point x="212.5" y="-145"/>
			<point x="181.5" y="-115.7"/>
			<point x="125.1" y="-115.7" type="curve" smooth="yes"/>
			<point x="62.6" y="-115.7"/>
			<point x="26.9" y="-158.6"/>
			<point x="26.9" y="-213" type="curve" smooth="yes"/>
			<point x="26.9" y="-261.9"/>
			<point x="55.5" y="-288.8"/>
		</contour>
		<contour>
			<point x="-353.1" y="-529.7" type="curve" smooth="yes"/>
			<point x="-289" y="-529.7"/>
			<point x="-250.2" y="-489.1"/>
			<point x="-250.2" y="-433.7" type="curve" smooth="yes"/>
			<point x="-250.2" y="-377.9"/>
			<point x="-287.5" y="-357"/>
			<point x="-336.5" y="-357" type="curve" smooth="yes"/>
			<point x="-397.2" y="-357"/>
			<point x="-435.7" y="-399.9"/>
			<point x="-435.7" y="-454.3" type="curve" smooth="yes"/>
			<point x="-435.7" y="-506.3"/>
			<point x="-402.2" y="-529.7"/>
		</contour>
		<contour>
			<point x="58.1" y="-529.7" type="curve" smooth="yes"/>
			<point x="123.3" y="-529.7"/>
			<point x="161.7" y="-489.1"/>
			<point x="161.7" y="-434.4" type="curve" smooth="yes"/>
			<point x="161.7" y="-386.3"/>
			<point x="131.4" y="-357"/>
			<point x="74.7" y="-357" type="curve" smooth="yes"/>
			<point x="12.2" y="-357"/>
			<point x="-24.9" y="-399.9"/>
			<point x="-24.9" y="-453.6" type="curve" smooth="yes"/>
			<point x="-24.9" y="-505.6"/>
			<point x="8.6" y="-529.7"/>
		</contour>
	</outline>
</glyph>
<glyph name="hatafpatah-hb" format="2">
	<advance width="0"/>
	<unicode hex="05B2"/>
	<anchor x="-152.3" y="-95.7" name="_bottom"/>
	<note>
		afii57800
	</note>
	<outline>
		<contour>
			<point x="-493" y="-258.6" type="line"/>
			<point x="-125.8" y="-258.6" type="line"/>
			<point x="-101" y="-142.1" type="line"/>
			<point x="-468.2" y="-142.1" type="line"/>
		</contour>
		<contour>
			<point x="2.7" y="-529.7" type="curve" smooth="yes"/>
			<point x="67.2" y="-529.7"/>
			<point x="106.3" y="-489.1"/>
			<point x="106.3" y="-433.7" type="curve" smooth="yes"/>
			<point x="106.3" y="-377.9"/>
			<point x="69" y="-357"/>
			<point x="19.3" y="-357" type="curve" smooth="yes"/>
			<point x="-42.7" y="-357"/>
			<point x="-80.5" y="-399.6"/>
			<point x="-80.5" y="-454.3" type="curve" smooth="yes"/>
			<point x="-80.5" y="-505.6"/>
			<point x="-47.7" y="-529.7"/>
		</contour>
		<contour>
			<point x="53.8" y="-288.8" type="curve" smooth="yes"/>
			<point x="118.3" y="-288.8"/>
			<point x="156.4" y="-248.8"/>
			<point x="156.4" y="-194.1" type="curve" smooth="yes"/>
			<point x="156.4" y="-136.6"/>
			<point x="119.1" y="-115.7"/>
			<point x="69.7" y="-115.7" type="curve" smooth="yes"/>
			<point x="8.6" y="-115.7"/>
			<point x="-28.8" y="-158.3"/>
			<point x="-28.8" y="-212.7" type="curve" smooth="yes"/>
			<point x="-28.8" y="-261.9"/>
			<point x="0.5" y="-288.8"/>
		</contour>
	</outline>
</glyph>
<glyph name="hatafqamats-hb" format="2">
	<advance width="0"/>
	<unicode hex="05B3"/>
	<anchor x="-152.3" y="-95.7" name="_bottom"/>
	<note>
		afii57802
	</note>
	<outline>
		<contour>
			<point x="-409.4" y="-460.6" type="line"/>
			<point x="-298.9" y="-460.6" type="line"/>
			<point x="-255.9" y="-258.6" type="line"/>
			<point x="-127.9" y="-258.6" type="line"/>
			<point x="-103.1" y="-142.1" type="line"/>
			<point x="-470.3" y="-142.1" type="line"/>
			<point x="-495.1" y="-258.6" type="line"/>
			<point x="-366.4" y="-258.6" type="line"/>
		</contour>
		<contour>
			<point x="5.5" y="-529.7" type="curve" smooth="yes"/>
			<point x="70.7" y="-529.7"/>
			<point x="107.7" y="-488.4"/>
			<point x="107.7" y="-433" type="curve" smooth="yes"/>
			<point x="107.7" y="-385.6"/>
			<point x="77.4" y="-357"/>
			<point x="22.1" y="-357" type="curve" smooth="yes"/>
			<point x="-41.3" y="-357"/>
			<point x="-78.4" y="-400.3"/>
			<point x="-78.4" y="-453.6" type="curve" smooth="yes"/>
			<point x="-78.4" y="-503.5"/>
			<point x="-47" y="-529.7"/>
		</contour>
		<contour>
			<point x="56.6" y="-288.8" type="curve" smooth="yes"/>
			<point x="121.1" y="-288.8"/>
			<point x="159.2" y="-248.1"/>
			<point x="159.2" y="-193.4" type="curve" smooth="yes"/>
			<point x="159.2" y="-140.1"/>
			<point x="123.3" y="-115.7"/>
			<point x="72.5" y="-115.7" type="curve" smooth="yes"/>
			<point x="10" y="-115.7"/>
			<point x="-26.7" y="-158.3"/>
			<point x="-26.7" y="-212.7" type="curve" smooth="yes"/>
			<point x="-26.7" y="-261.9"/>
			<point x="3.3" y="-288.8"/>
		</contour>
	</outline>
</glyph>
<glyph name="hiriq-hb" format="2">
	<advance width="0"/>
	<unicode hex="05B4"/>
	<anchor x="-153.2" y="-91.5" name="_bottom"/>
	<note>
		afii57793
	</note>
	<outline>
		<contour>
			<point x="-168.1" y="-283.9" type="curve" smooth="yes"/>
			<point x="-104.3" y="-283.9"/>
			<point x="-67.6" y="-245.3"/>
			<point x="-67.6" y="-189.9" type="curve" smooth="yes"/>
			<point x="-67.6" y="-136.6"/>
			<point x="-98.6" y="-111.5"/>
			<point x="-153.6" y="-111.5" type="curve" smooth="yes"/>
			<point x="-216.1" y="-111.5"/>
			<point x="-254.9" y="-156.2"/>
			<point x="-254.9" y="-212" type="curve" smooth="yes"/>
			<point x="-254.9" y="-261.2"/>
			<point x="-217.2" y="-283.9"/>
		</contour>
	</outline>
</glyph>
<glyph name="tsere-hb" format="2">
	<advance width="0"/>
	<unicode hex="05B5"/>
	<anchor x="-149" y="-71.9" name="_bottom"/>
	<note>
		afii57794
	</note>
	<outline>
		<contour>
			<point x="-19.2" y="-265" type="curve" smooth="yes"/>
			<point x="47" y="-265"/>
			<point x="85.5" y="-226.4"/>
			<point x="85.5" y="-170.7" type="curve" smooth="yes"/>
			<point x="85.5" y="-119.1"/>
			<point x="55.2" y="-91.9"/>
			<point x="-2.3" y="-91.9" type="curve" smooth="yes"/>
			<point x="-65.8" y="-91.9"/>
			<point x="-104.6" y="-136.6"/>
			<point x="-104.6" y="-191" type="curve" smooth="yes"/>
			<point x="-104.6" y="-236.7"/>
			<point x="-72.5" y="-265"/>
		</contour>
		<contour>
			<point x="-314.6" y="-265" type="curve" smooth="yes"/>
			<point x="-250.8" y="-265"/>
			<point x="-214.4" y="-223.6"/>
			<point x="-214.4" y="-167.2" type="curve" smooth="yes"/>
			<point x="-214.4" y="-112.1"/>
			<point x="-250.3" y="-91.9"/>
			<point x="-298" y="-91.9" type="curve" smooth="yes"/>
			<point x="-360.5" y="-91.9"/>
			<point x="-398.6" y="-134.5"/>
			<point x="-398.6" y="-188.9" type="curve" smooth="yes"/>
			<point x="-398.6" y="-236"/>
			<point x="-369.3" y="-265"/>
		</contour>
	</outline>
</glyph>
<glyph name="segol-hb" format="2">
	<advance width="0"/>
	<unicode hex="05B6"/>
	<anchor x="-109.1" y="-77.9" name="_bottom"/>
	<note>
		afii57795
	</note>
	<outline>
		<contour>
			<point x="-313.9" y="-271" type="curve" smooth="yes"/>
			<point x="-249.4" y="-271"/>
			<point x="-213.4" y="-231.7"/>
			<point x="-213.4" y="-175.6" type="curve" smooth="yes"/>
			<point x="-213.4" y="-123.7"/>
			<point x="-244.4" y="-97.9"/>
			<point x="-299.4" y="-97.9" type="curve" smooth="yes"/>
			<point x="-361.5" y="-97.9"/>
			<point x="-401.7" y="-141.9"/>
			<point x="-401.7" y="-196.3" type="curve" smooth="yes"/>
			<point x="-401.7" y="-243.4"/>
			<point x="-368.9" y="-271"/>
		</contour>
		<contour>
			<point x="-15.4" y="-271.3" type="curve" smooth="yes"/>
			<point x="49.1" y="-271.3"/>
			<point x="85.1" y="-232"/>
			<point x="85.1" y="-175.9" type="curve" smooth="yes"/>
			<point x="85.1" y="-124"/>
			<point x="54.1" y="-98.2"/>
			<point x="-0.9" y="-98.2" type="curve" smooth="yes"/>
			<point x="-63" y="-98.2"/>
			<point x="-103.2" y="-142.2"/>
			<point x="-103.2" y="-196.6" type="curve" smooth="yes"/>
			<point x="-103.2" y="-243.7"/>
			<point x="-70.4" y="-271.3"/>
		</contour>
		<contour>
			<point x="-212.2" y="-521.7" type="curve" smooth="yes"/>
			<point x="-147.7" y="-521.7"/>
			<point x="-111.7" y="-482.4"/>
			<point x="-111.7" y="-426.3" type="curve" smooth="yes"/>
			<point x="-111.7" y="-374.4"/>
			<point x="-142.7" y="-348.6"/>
			<point x="-197.7" y="-348.6" type="curve" smooth="yes"/>
			<point x="-259.8" y="-348.6"/>
			<point x="-300" y="-392.6"/>
			<point x="-300" y="-447" type="curve" smooth="yes"/>
			<point x="-300" y="-494.1"/>
			<point x="-267.2" y="-521.7"/>
		</contour>
	</outline>
</glyph>
<glyph name="patah-hb" format="2">
	<advance width="0"/>
	<unicode hex="05B7"/>
	<anchor x="-151.8" y="-98.7" name="_bottom"/>
	<note>
		afii57798
	</note>
	<outline>
		<contour>
			<point x="-365.2" y="-234.1" type="line"/>
			<point x="28.9" y="-234.1" type="line"/>
			<point x="53.3" y="-118.7" type="line"/>
			<point x="-340.8" y="-118.7" type="line"/>
		</contour>
	</outline>
</glyph>
<glyph name="qamats-hb" format="2">
	<advance width="0"/>
	<unicode hex="05B8"/>
	<anchor x="-148" y="-117.6" name="_bottom"/>
	<note>
		afii57797
	</note>
	<outline>
		<contour>
			<point x="-271.5" y="-457.5" type="line"/>
			<point x="-159.2" y="-457.5" type="line"/>
			<point x="-116.2" y="-254.4" type="line"/>
			<point x="19.4" y="-254.4" type="line"/>
			<point x="44.2" y="-137.6" type="line"/>
			<point x="-339" y="-137.6" type="line"/>
			<point x="-363.8" y="-254.4" type="line"/>
			<point x="-228.5" y="-254.4" type="line"/>
		</contour>
	</outline>
</glyph>
<glyph name="holam-hb" format="2">
	<advance width="0"/>
	<unicode hex="05B9"/>
	<anchor x="304.9" y="1390" name="_topleft"/>
	<note>
		afii57806
	</note>
	<outline>
		<contour>
			<point x="190.7" y="1410" type="curve" smooth="yes"/>
			<point x="256.6" y="1410"/>
			<point x="292.6" y="1450"/>
			<point x="292.6" y="1506.8" type="curve" smooth="yes"/>
			<point x="292.6" y="1558"/>
			<point x="260.2" y="1583.1"/>
			<point x="206.6" y="1583.1" type="curve" smooth="yes"/>
			<point x="144.1" y="1583.1"/>
			<point x="105.3" y="1539.1"/>
			<point x="105.3" y="1485.4" type="curve" smooth="yes"/>
			<point x="105.3" y="1433.4"/>
			<point x="140.9" y="1410"/>
		</contour>
	</outline>
</glyph>
<glyph name="holamhaser-hb" format="2">
	<advance width="0"/>
	<unicode hex="05BA"/>
	<anchor x="305.9" y="1390" name="_topleft"/>
	<note>
		uni05BA
	</note>
	<outline>
		<contour>
			<point x="192.1" y="1410" type="curve" smooth="yes"/>
			<point x="256.6" y="1410"/>
			<point x="294" y="1449.3"/>
			<point x="294" y="1504.7" type="curve" smooth="yes"/>
			<point x="294" y="1558"/>
			<point x="262.3" y="1583.1"/>
			<point x="207.3" y="1583.1" type="curve" smooth="yes"/>
			<point x="144.8" y="1583.1"/>
			<point x="105.6" y="1538.8"/>
			<point x="105.6" y="1484.4" type="curve" smooth="yes"/>
			<point x="105.6" y="1433.4"/>
			<point x="142.6" y="1410"/>
		</contour>
	</outline>
</glyph>
<glyph name="qubuts-hb" format="2">
	<advance width="0"/>
	<unicode hex="05BB"/>
	<anchor x="-182.6" y="-106.9" name="_bottom"/>
	<note>
		afii57796
	</note>
	<outline>
		<contour>
			<point x="-358" y="-300" type="curve" smooth="yes"/>
			<point x="-294.9" y="-300"/>
			<point x="-257.8" y="-260"/>
			<point x="-257.8" y="-205" type="curve" smooth="yes"/>
			<point x="-257.8" y="-146.4"/>
			<point x="-294.4" y="-126.9"/>
			<point x="-342.1" y="-126.9" type="curve" smooth="yes"/>
			<point x="-403.9" y="-126.9"/>
			<point x="-440.6" y="-170.2"/>
			<point x="-440.6" y="-226" type="curve" smooth="yes"/>
			<point x="-440.6" y="-273.8"/>
			<point x="-411.3" y="-300"/>
		</contour>
		<contour>
			<point x="-213.9" y="-476.1" type="curve" smooth="yes"/>
			<point x="-150.1" y="-476.1"/>
			<point x="-111.7" y="-434.8"/>
			<point x="-111.7" y="-380.1" type="curve" smooth="yes"/>
			<point x="-111.7" y="-332"/>
			<point x="-142" y="-302.7"/>
			<point x="-198" y="-302.7" type="curve" smooth="yes"/>
			<point x="-259.1" y="-302.7"/>
			<point x="-296.5" y="-345.6"/>
			<point x="-296.5" y="-399.3" type="curve" smooth="yes"/>
			<point x="-296.5" y="-451.3"/>
			<point x="-263" y="-476.1"/>
		</contour>
		<contour>
			<point x="-63.3" y="-650.8" type="curve" smooth="yes"/>
			<point x="1.2" y="-650.8"/>
			<point x="37.9" y="-611.3"/>
			<point x="37.9" y="-555.9" type="curve" smooth="yes"/>
			<point x="37.9" y="-503.9"/>
			<point x="5.5" y="-478.1"/>
			<point x="-48.1" y="-478.1" type="curve" smooth="yes"/>
			<point x="-111.3" y="-478.1"/>
			<point x="-149.4" y="-521.7"/>
			<point x="-149.4" y="-576.1" type="curve" smooth="yes"/>
			<point x="-149.4" y="-628.1"/>
			<point x="-113.8" y="-650.8"/>
		</contour>
	</outline>
</glyph>
<glyph name="dagesh-hb" format="2">
	<advance width="0"/>
	<unicode hex="05BC"/>
	<anchor x="104.7" y="656.7" name="_center"/>
	<note>
		afii57807
	</note>
	<outline>
		<contour>
			<point x="97.5" y="569.8" type="curve" smooth="yes"/>
			<point x="162" y="569.8"/>
			<point x="198" y="609.1"/>
			<point x="198" y="665.2" type="curve" smooth="yes"/>
			<point x="198" y="717.1"/>
			<point x="167" y="742.9"/>
			<point x="112" y="742.9" type="curve" smooth="yes"/>
			<point x="49.9" y="742.9"/>
			<point x="9.7" y="698.9"/>
			<point x="9.7" y="644.5" type="curve" smooth="yes"/>
			<point x="9.7" y="597.4"/>
			<point x="42.5" y="569.8"/>
		</contour>
	</outline>
</glyph>
<glyph name="siluqleft-hb" format="2">
	<advance width="0"/>
	<unicode hex="05BD"/>
	<anchor x="-175.7" y="-137.3" name="_bottom"/>
	<note>
		afii57839
	</note>
	<outline>
		<contour>
			<point x="-279.2" y="-508.8" type="line"/>
			<point x="-174.1" y="-508.8" type="line"/>
			<point x="-99.7" y="-157.3" type="line"/>
			<point x="-204.1" y="-157.3" type="line"/>
		</contour>
	</outline>
</glyph>
<glyph name="shindot-hb" format="2">
	<advance width="0"/>
	<unicode hex="05C1"/>
	<anchor x="193.7" y="1114.4" name="_topright"/>
	<note>
		afii57804
	</note>
	<outline>
		<contour>
			<point x="192.1" y="1410" type="curve" smooth="yes"/>
			<point x="256.6" y="1410"/>
			<point x="293.3" y="1449.3"/>
			<point x="293.3" y="1504.7" type="curve" smooth="yes"/>
			<point x="293.3" y="1558"/>
			<point x="262.3" y="1583.1"/>
			<point x="207.3" y="1583.1" type="curve" smooth="yes"/>
			<point x="144.8" y="1583.1"/>
			<point x="105.3" y="1539.1"/>
			<point x="105.3" y="1484.7" type="curve" smooth="yes"/>
			<point x="105.3" y="1433.4"/>
			<point x="142.3" y="1410"/>
		</contour>
	</outline>
</glyph>
<glyph name="sindot-hb" format="2">
	<advance width="0"/>
	<unicode hex="05C2"/>
	<anchor x="304.9" y="1390" name="_topleft"/>
	<note>
		afii57803
	</note>
	<outline>
		<contour>
			<point x="191.4" y="1410" type="curve" smooth="yes"/>
			<point x="255.9" y="1410"/>
			<point x="293.3" y="1449.3"/>
			<point x="293.3" y="1504.7" type="curve" smooth="yes"/>
			<point x="293.3" y="1558"/>
			<point x="262.3" y="1583.1"/>
			<point x="206.6" y="1583.1" type="curve" smooth="yes"/>
			<point x="144.1" y="1583.1"/>
			<point x="105.3" y="1539.8"/>
			<point x="105.3" y="1485.4" type="curve" smooth="yes"/>
			<point x="105.3" y="1432.7"/>
			<point x="141.6" y="1410"/>
		</contour>
	</outline>
</glyph>
<glyph name="alef-hb" format="2">
	<advance width="1024.1"/>
	<unicode hex="05D0"/>
	<anchor x="338.9" y="-204.9" name="bottom"/>
	<anchor x="-98.5" y="0" name="bottomleft"/>
	<anchor x="371.6" y="180" name="center"/>
	<anchor x="630.7" y="1114.4" name="top"/>
	<anchor x="138.5" y="1114.4" name="topleft"/>
	<note>
		afii57664
	</note>
	<outline>
		<contour>
			<point x="-45.4" y="0" type="line"/>
			<point x="219.9" y="0" type="line"/>
			<point x="316.6" y="453.4" type="line" smooth="yes"/>
			<point x="325" y="494.6"/>
			<point x="337.9" y="528.3"/>
			<point x="353.7" y="555.2" type="curve" smooth="yes"/>
			<point x="365.3" y="574.4"/>
			<point x="378.4" y="590.1"/>
			<point x="392.9" y="602.3" type="curve"/>
			<point x="523.2" y="0" type="line"/>
			<point x="825.7" y="0" type="line"/>
			<point x="713.2" y="459.6" type="line"/>
			<point x="745.6" y="470.7"/>
			<point x="853.4" y="514"/>
			<point x="899.4" y="556.8" type="curve" smooth="yes"/>
			<point x="952.3" y="605.4"/>
			<point x="988.2" y="704.6"/>
			<point x="1012.1" y="817.8" type="curve" smooth="yes"/>
			<point x="1111.8" y="1290" type="line"/>
			<point x="846.5" y="1290" type="line"/>
			<point x="749.6" y="835.6" type="line" smooth="yes"/>
			<point x="741.1" y="795.3"/>
			<point x="724.5" y="756.6"/>
			<point x="704.1" y="726.8" type="curve" smooth="yes"/>
			<point x="688" y="701.9"/>
			<point x="669" y="683"/>
			<point x="650" y="670.8" type="curve"/>
			<point x="507" y="1290" type="line"/>
			<point x="206.9" y="1290" type="line"/>
			<point x="332.8" y="822.8" type="line"/>
			<point x="223.7" y="779.4"/>
			<point x="169.2" y="741.1"/>
			<point x="128.4" y="676.2" type="curve" smooth="yes"/>
			<point x="89" y="615.9"/>
			<point x="69.4" y="540.6"/>
			<point x="54.8" y="471.9" type="curve" smooth="yes"/>
		</contour>
	</outline>
</glyph>
<glyph name="bet-hb" format="2">
	<advance width="926.5"/>
	<unicode hex="05D1"/>
	<anchor x="345.1" y="0" name="bottom"/>
	<anchor x="-98.5" y="0" name="bottomleft"/>
	<anchor x="330.6" y="599.7" name="center"/>
	<anchor x="582.1" y="1114.4" name="top"/>
	<anchor x="138.5" y="1114.4" name="topleft"/>
	<note>
		afii57665
	</note>
	<outline>
		<contour>
			<point x="-51.9" y="0" type="line"/>
			<point x="758.4" y="0" type="line"/>
			<point x="804.4" y="214.9" type="line"/>
			<point x="670.8" y="214.9" type="line"/>
			<point x="805.8" y="850.6" type="line" smooth="yes"/>
			<point x="817.8" y="907.7"/>
			<point x="836.4" y="1009.9"/>
			<point x="836.4" y="1068.8" type="curve" smooth="yes"/>
			<point x="836.4" y="1108.6"/>
			<point x="828.9" y="1136.5"/>
			<point x="815.3" y="1164.4" type="curve" smooth="yes"/>
			<point x="795.9" y="1206.3"/>
			<point x="764.4" y="1237.2"/>
			<point x="713.5" y="1260.9" type="curve" smooth="yes"/>
			<point x="654.4" y="1288.5"/>
			<point x="582.8" y="1310"/>
			<point x="436.9" y="1310" type="curve" smooth="yes"/>
			<point x="370.7" y="1310"/>
			<point x="295.6" y="1306.3"/>
			<point x="213.3" y="1295.1" type="curve"/>
			<point x="176.4" y="1076.5" type="line"/>
			<point x="213" y="1080.2" type="line"/>
			<point x="313" y="1090.5"/>
			<point x="372.5" y="1093.8"/>
			<point x="459.1" y="1093.8" type="curve" smooth="yes"/>
			<point x="484.5" y="1093.8"/>
			<point x="512.7" y="1086.9"/>
			<point x="531.8" y="1069.6" type="curve" smooth="yes"/>
			<point x="551" y="1051.5"/>
			<point x="558.1" y="1025.7"/>
			<point x="558.1" y="991.7" type="curve" smooth="yes"/>
			<point x="558.1" y="957.1"/>
			<point x="551.4" y="919"/>
			<point x="541.4" y="872.3" type="curve" smooth="yes"/>
			<point x="402.2" y="214.9" type="line"/>
			<point x="-6.6" y="214.9" type="line"/>
		</contour>
	</outline>
</glyph>
<glyph name="gimel-hb" format="2">
	<advance width="786.2"/>
	<unicode hex="05D2"/>
	<anchor x="274.6" y="0" name="bottom"/>
	<anchor x="-98.5" y="0" name="bottomleft"/>
	<anchor x="281.1" y="644.2" name="center"/>
	<anchor x="511.6" y="1114.4" name="top"/>
	<anchor x="138.5" y="1114.4" name="topleft"/>
	<note>
		afii57666
	</note>
	<outline>
		<contour>
			<point x="56.6" y="-20.8" type="curve" smooth="yes"/>
			<point x="218.9" y="-20.8"/>
			<point x="329.9" y="78.8"/>
			<point x="383.5" y="187.8" type="curve"/>
			<point x="391.2" y="187.8" type="line"/>
			<point x="393.3" y="0" type="line"/>
			<point x="583.2" y="0" type="line"/>
			<point x="777.8" y="916.1" type="line" smooth="yes"/>
			<point x="791.7" y="980.6"/>
			<point x="800.6" y="1034.4"/>
			<point x="800.6" y="1079.4" type="curve" smooth="yes"/>
			<point x="800.6" y="1251.1"/>
			<point x="671.8" y="1310"/>
			<point x="486.2" y="1310" type="curve" smooth="yes"/>
			<point x="436.5" y="1310"/>
			<point x="379.1" y="1305.7"/>
			<point x="330" y="1290.1" type="curve"/>
			<point x="298.7" y="1061.4" type="line"/>
			<point x="348" y="1075.2"/>
			<point x="403.8" y="1087.5"/>
			<point x="443.6" y="1087.5" type="curve" smooth="yes"/>
			<point x="496.5" y="1087.5"/>
			<point x="524" y="1065.7"/>
			<point x="524" y="1009" type="curve" smooth="yes"/>
			<point x="524" y="991.5"/>
			<point x="521.4" y="965.9"/>
			<point x="515.5" y="937.1" type="curve" smooth="yes"/>
			<point x="430.6" y="536.2" type="line" smooth="yes"/>
			<point x="383.4" y="312"/>
			<point x="282.9" y="229.4"/>
			<point x="72.8" y="229.4" type="curve" smooth="yes"/>
			<point x="44.3" y="229.4"/>
			<point x="22.7" y="238.3"/>
			<point x="8.3" y="247.3" type="curve"/>
			<point x="-57" y="-8.4" type="line"/>
			<point x="-18" y="-15.7"/>
			<point x="20.5" y="-20.8"/>
		</contour>
	</outline>
</glyph>
<glyph name="vav-hb" format="2">
	<advance width="492.1"/>
	<unicode hex="05D5"/>
	<anchor x="127.7" y="0" name="bottom"/>
	<anchor x="-98.5" y="0" name="bottomleft"/>
	<anchor x="-30.6" y="651.8" name="center"/>
	<anchor x="364.7" y="1114.4" name="top"/>
	<anchor x="138.5" y="1114.4" name="topleft"/>
	<note>
		afii57669
	</note>
	<outline>
		<contour>
			<point x="-12.3" y="0" type="line"/>
			<point x="254.9" y="0" type="line"/>
			<point x="528.2" y="1290" type="line"/>
			<point x="261.7" y="1290" type="line"/>
		</contour>
	</outline>
</glyph>
<glyph name="zayin-hb" format="2">
	<advance width="569.8"/>
	<unicode hex="05D6"/>
	<anchor x="166.9" y="0" name="bottom"/>
	<anchor x="-98.5" y="0" name="bottomleft"/>
	<anchor x="4.9" y="671.9" name="center"/>
	<anchor x="403.9" y="1114.4" name="top"/>
	<anchor x="138.5" y="1114.4" name="topleft"/>
	<note>
		afii57670
	</note>
	<outline>
		<contour>
			<point x="-12.8" y="0" type="line"/>
			<point x="254.4" y="0" type="line"/>
			<point x="344.8" y="423" type="line" smooth="yes"/>
			<point x="380.1" y="588.2"/>
			<point x="389.9" y="616.1"/>
			<point x="442.2" y="746.6" type="curve" smooth="yes"/>
			<point x="463.2" y="798.2"/>
			<point x="488" y="849.2"/>
			<point x="512.8" y="895.1" type="curve" smooth="yes"/>
			<point x="558.5" y="979.5"/>
			<point x="605.6" y="1045.7"/>
			<point x="626.5" y="1065.8" type="curve"/>
			<point x="669.5" y="1290" type="line"/>
			<point x="226.5" y="1290" type="line"/>
			<point x="180.5" y="1075.1" type="line"/>
			<point x="436.1" y="1075.1" type="line"/>
			<point x="394.9" y="1058.1"/>
			<point x="361.6" y="1038.4"/>
			<point x="322.4" y="993.7" type="curve" smooth="yes"/>
			<point x="244.5" y="906.3"/>
			<point x="137.9" y="707.4"/>
			<point x="81.8" y="444" type="curve" smooth="yes"/>
		</contour>
	</outline>
</glyph>
<glyph name="tet-hb" format="2">
	<advance width="1038"/>
	<unicode hex="05D8"/>
	<anchor x="400.5" y="0" name="bottom"/>
	<anchor x="-98.5" y="0" name="bottomleft"/>
	<anchor x="535.1" y="627.7" name="center"/>
	<anchor x="637.5" y="1114.4" name="top"/>
	<anchor x="138.5" y="1114.4" name="topleft"/>
	<note>
		afii57672
	</note>
	<outline>
		<contour>
			<point x="397.6" y="-22.1" type="curve" smooth="yes"/>
			<point x="452.8" y="-22.1"/>
			<point x="558.8" y="-10.8"/>
			<point x="646.3" y="50.3" type="curve" smooth="yes"/>
			<point x="698.5" y="88"/>
			<point x="775.1" y="163.3"/>
			<point x="822.9" y="245" type="curve" smooth="yes"/>
			<point x="881.3" y="342.3"/>
			<point x="931.5" y="500.9"/>
			<point x="958" y="619.8" type="curve" smooth="yes"/>
			<point x="976.6" y="704.4"/>
			<point x="987.8" y="778.8"/>
			<point x="987.8" y="875.3" type="curve" smooth="yes"/>
			<point x="987.8" y="1012.5"/>
			<point x="968.1" y="1114.4"/>
			<point x="914" y="1193.2" type="curve" smooth="yes"/>
			<point x="861.1" y="1271.2"/>
			<point x="790.1" y="1310"/>
			<point x="691.6" y="1310" type="curve" smooth="yes"/>
			<point x="667.1" y="1310"/>
			<point x="629.5" y="1307.7"/>
			<point x="594" y="1302.7" type="curve"/>
			<point x="565.9" y="1085.2" type="line"/>
			<point x="599.2" y="1090.9"/>
			<point x="623" y="1092.8"/>
			<point x="640.5" y="1092.8" type="curve" smooth="yes"/>
			<point x="659.6" y="1092.8"/>
			<point x="682.6" y="1087.9"/>
			<point x="700.1" y="1074.6" type="curve" smooth="yes"/>
			<point x="722.9" y="1057.5"/>
			<point x="737.9" y="1023.7"/>
			<point x="737.9" y="976.2" type="curve" smooth="yes"/>
			<point x="737.9" y="876"/>
			<point x="699" y="659.2"/>
			<point x="654.6" y="545.7" type="curve" smooth="yes"/>
			<point x="620.7" y="409.4"/>
			<point x="594.8" y="345.1"/>
			<point x="558" y="290.8" type="curve" smooth="yes"/>
			<point x="514.6" y="231.3"/>
			<point x="465.6" y="197.4"/>
			<point x="417.3" y="197.4" type="curve" smooth="yes"/>
			<point x="377.4" y="197.4"/>
			<point x="355.7" y="215.1"/>
			<point x="343.3" y="242.2" type="curve" smooth="yes"/>
			<point x="331.3" y="267.4"/>
			<point x="328.5" y="300.8"/>
			<point x="328.5" y="336" type="curve" smooth="yes"/>
			<point x="328.5" y="414.2"/>
			<point x="341.8" y="501.3"/>
			<point x="370.2" y="635.9" type="curve" smooth="yes"/>
			<point x="508.6" y="1287.9" type="line"/>
			<point x="236.9" y="1287.9" type="line"/>
			<point x="102.4" y="655.5" type="line" smooth="yes"/>
			<point x="82.4" y="559.7"/>
			<point x="71.9" y="481.1"/>
			<point x="71.9" y="398.9" type="curve" smooth="yes"/>
			<point x="71.9" y="302"/>
			<point x="85.9" y="214"/>
			<point x="118.1" y="144.6" type="curve" smooth="yes"/>
			<point x="165.1" y="42.1"/>
			<point x="253" y="-22.1"/>
		</contour>
	</outline>
</glyph>
<glyph name="yod-hb" format="2">
	<advance width="492.6"/>
	<unicode hex="05D9"/>
	<anchor x="128.3" y="0" name="bottom"/>
	<anchor x="-98.5" y="0" name="bottomleft"/>
	<anchor x="-8.8" y="770.3" name="center"/>
	<anchor x="365.3" y="1114.4" name="top"/>
	<anchor x="138.5" y="1114.4" name="topleft"/>
	<note>
		afii57673
	</note>
	<outline>
		<contour>
			<point x="78.9" y="435.8" type="line"/>
			<point x="183.8" y="435.8" type="line"/>
			<point x="403" y="693.5" type="line"/>
			<point x="525.8" y="1290" type="line"/>
			<point x="260" y="1290" type="line"/>
		</contour>
	</outline>
</glyph>
<glyph name="finalkaf-hb" format="2">
	<advance width="821.4"/>
	<unicode hex="05DA"/>
	<anchor x="292.2" y="0" name="bottom"/>
	<anchor x="-98.5" y="0" name="bottomleft"/>
	<anchor x="262.8" y="622.6" name="center"/>
	<anchor x="529.2" y="1114.4" name="top"/>
	<anchor x="138.5" y="1114.4" name="topleft"/>
	<note>
		afii57674
	</note>
	<outline>
		<contour>
			<point x="236.2" y="-492" type="line"/>
			<point x="501.9" y="-492" type="line"/>
			<point x="760.6" y="727.3" type="line" smooth="yes"/>
			<point x="776.6" y="801.4"/>
			<point x="789" y="882.9"/>
			<point x="789" y="955.7" type="curve" smooth="yes"/>
			<point x="789" y="997.9"/>
			<point x="785.3" y="1036.1"/>
			<point x="777.5" y="1070.6" type="curve" smooth="yes"/>
			<point x="756.1" y="1164.6"/>
			<point x="705.3" y="1231.2"/>
			<point x="627.3" y="1269.7" type="curve" smooth="yes"/>
			<point x="574.7" y="1296.8"/>
			<point x="509.7" y="1310"/>
			<point x="432.4" y="1310" type="curve" smooth="yes"/>
			<point x="371.3" y="1310"/>
			<point x="289.4" y="1302.2"/>
			<point x="206.3" y="1284.9" type="curve"/>
			<point x="175.9" y="1060.1" type="line"/>
			<point x="181" y="1060.7"/>
			<point x="185.4" y="1061.7"/>
			<point x="190.5" y="1062.3" type="curve" smooth="yes"/>
			<point x="284.3" y="1076.9"/>
			<point x="343.6" y="1081.4"/>
			<point x="414.2" y="1081.4" type="curve" smooth="yes"/>
			<point x="452.1" y="1081.4"/>
			<point x="478.4" y="1071.5"/>
			<point x="495.9" y="1052.4" type="curve" smooth="yes"/>
			<point x="515.4" y="1031.3"/>
			<point x="523.4" y="998.3"/>
			<point x="523.4" y="952.4" type="curve" smooth="yes"/>
			<point x="523.4" y="901.7"/>
			<point x="513.1" y="817.1"/>
			<point x="498.4" y="748.3" type="curve" smooth="yes"/>
		</contour>
	</outline>
</glyph>
<glyph name="kaf-hb" format="2">
	<advance width="792.5"/>
	<unicode hex="05DB"/>
	<anchor x="277.9" y="0" name="bottom"/>
	<anchor x="-98.5" y="0" name="bottomleft"/>
	<anchor x="269.7" y="629.9" name="center"/>
	<anchor x="514.9" y="1114.4" name="top"/>
	<anchor x="138.5" y="1114.4" name="topleft"/>
	<note>
		afii57675
	</note>
	<outline>
		<contour>
			<point x="223" y="-20" type="curve" smooth="yes"/>
			<point x="312.2" y="-20"/>
			<point x="391.6" y="6.2"/>
			<point x="458.3" y="52.3" type="curve" smooth="yes"/>
			<point x="523" y="97.4"/>
			<point x="575.1" y="161.1"/>
			<point x="615.4" y="238.1" type="curve" smooth="yes"/>
			<point x="657.5" y="318.1"/>
			<point x="687.4" y="410.5"/>
			<point x="708.9" y="511" type="curve" smooth="yes"/>
			<point x="754.5" y="727.3" type="line" smooth="yes"/>
			<point x="772.6" y="811.9"/>
			<point x="781.5" y="898.3"/>
			<point x="781.5" y="960.6" type="curve" smooth="yes"/>
			<point x="781.5" y="998"/>
			<point x="778.1" y="1032.1"/>
			<point x="771.7" y="1063.5" type="curve" smooth="yes"/>
			<point x="756.5" y="1137.7"/>
			<point x="723.1" y="1195.3"/>
			<point x="674.2" y="1236.2" type="curve" smooth="yes"/>
			<point x="614.3" y="1284.7"/>
			<point x="531" y="1310"/>
			<point x="425.7" y="1310" type="curve" smooth="yes"/>
			<point x="365.2" y="1310"/>
			<point x="283" y="1302.2"/>
			<point x="199.9" y="1284.9" type="curve"/>
			<point x="168.4" y="1051" type="line"/>
			<point x="176.6" y="1052.3"/>
			<point x="183.8" y="1054.3"/>
			<point x="191.3" y="1055.6" type="curve" smooth="yes"/>
			<point x="291.1" y="1075.5"/>
			<point x="352.5" y="1081.4"/>
			<point x="424.6" y="1081.4" type="curve" smooth="yes"/>
			<point x="452.7" y="1081.4"/>
			<point x="474.1" y="1070.4"/>
			<point x="488.4" y="1047.4" type="curve" smooth="yes"/>
			<point x="503.7" y="1024.2"/>
			<point x="511" y="988.8"/>
			<point x="511" y="941.5" type="curve" smooth="yes"/>
			<point x="511" y="888.5"/>
			<point x="502.5" y="825.8"/>
			<point x="486" y="748.3" type="curve" smooth="yes"/>
			<point x="440.4" y="532" type="line" smooth="yes"/>
			<point x="416.3" y="416.8"/>
			<point x="381.9" y="325"/>
			<point x="334.8" y="270.4" type="curve" smooth="yes"/>
			<point x="297" y="224.3"/>
			<point x="247.7" y="208.1"/>
			<point x="183.5" y="208.1" type="curve" smooth="yes"/>
			<point x="132.4" y="208.1"/>
			<point x="49.3" y="216.4"/>
			<point x="-14.1" y="236.1" type="curve" smooth="yes"/>
			<point x="-16.4" y="237.4"/>
			<point x="-18.4" y="237.7"/>
			<point x="-21.4" y="239" type="curve"/>
			<point x="-51.9" y="14.7" type="line"/>
			<point x="14.4" y="-8.2"/>
			<point x="117.7" y="-20"/>
		</contour>
	</outline>
</glyph>
<glyph name="lamed-hb" format="2">
	<advance width="823.7"/>
	<unicode hex="05DC"/>
	<anchor x="293.7" y="0" name="bottom"/>
	<anchor x="-98.5" y="0" name="bottomleft"/>
	<anchor x="206.8" y="630.2" name="center"/>
	<anchor x="530.7" y="1114.4" name="top"/>
	<anchor x="138.5" y="1114.4" name="topleft"/>
	<note>
		afii57676
	</note>
	<outline>
		<contour>
			<point x="127" y="0" type="line"/>
			<point x="389.2" y="0" type="line"/>
			<point x="598.7" y="496.5" type="line"/>
			<point x="894.4" y="1109.7" type="line"/>
			<point x="931" y="1289.7" type="line"/>
			<point x="460.6" y="1289.7" type="line"/>
			<point x="516.5" y="1555.7" type="line"/>
			<point x="250.7" y="1555.7" type="line"/>
			<point x="148.9" y="1074.5" type="line"/>
			<point x="615.1" y="1074.5" type="line"/>
			<point x="331.8" y="497.4" type="line"/>
		</contour>
	</outline>
</glyph>
<glyph name="mem-hb" format="2">
	<advance width="1082.3"/>
	<unicode hex="05DE"/>
	<anchor x="422.8" y="0" name="bottom"/>
	<anchor x="-98.5" y="0" name="bottomleft"/>
	<anchor x="569.3" y="592.7" name="center"/>
	<anchor x="659.8" y="1114.4" name="top"/>
	<anchor x="138.5" y="1114.4" name="topleft"/>
	<note>
		afii57678
	</note>
	<outline>
		<contour>
			<point x="-63.2" y="0" type="line"/>
			<point x="205" y="0" type="line"/>
			<point x="468.3" y="877.6" type="line"/>
			<point x="483.1" y="899.9" type="line" smooth="yes"/>
			<point x="503.6" y="931.2"/>
			<point x="527.8" y="961.5"/>
			<point x="561" y="996.9" type="curve" smooth="yes"/>
			<point x="605.7" y="1044.2"/>
			<point x="658.3" y="1085.4"/>
			<point x="716.6" y="1085.4" type="curve" smooth="yes"/>
			<point x="776.6" y="1085.4"/>
			<point x="798.8" y="1039.7"/>
			<point x="798.8" y="975.9" type="curve" smooth="yes"/>
			<point x="798.8" y="903.1"/>
			<point x="787.4" y="836.3"/>
			<point x="770.3" y="757" type="curve" smooth="yes"/>
			<point x="655.3" y="214.9" type="line"/>
			<point x="415.8" y="214.9" type="line"/>
			<point x="370.5" y="0" type="line"/>
			<point x="876.5" y="0" type="line"/>
			<point x="1033.4" y="737.4" type="line" smooth="yes"/>
			<point x="1056" y="842.8"/>
			<point x="1065.4" y="938"/>
			<point x="1065.4" y="1029.6" type="curve" smooth="yes"/>
			<point x="1065.4" y="1118"/>
			<point x="1055.5" y="1169.8"/>
			<point x="1024.5" y="1216.5" type="curve" smooth="yes"/>
			<point x="991.1" y="1267"/>
			<point x="929.5" y="1310"/>
			<point x="826.1" y="1310" type="curve" smooth="yes"/>
			<point x="662.2" y="1310"/>
			<point x="561.3" y="1240.8"/>
			<point x="479.9" y="1101.1" type="curve"/>
			<point x="472.5" y="1101.1" type="line"/>
			<point x="474.6" y="1117"/>
			<point x="476" y="1132.2"/>
			<point x="475.7" y="1150.9" type="curve" smooth="yes"/>
			<point x="475.1" y="1192"/>
			<point x="468.3" y="1242.1"/>
			<point x="459.9" y="1290" type="curve"/>
			<point x="214.7" y="1290" type="line"/>
			<point x="229.8" y="1176.5"/>
			<point x="233.4" y="1146.6"/>
			<point x="233.4" y="1112.7" type="curve" smooth="yes"/>
			<point x="233.4" y="1044.9"/>
			<point x="211.4" y="923"/>
			<point x="188.2" y="846.8" type="curve" smooth="yes"/>
		</contour>
	</outline>
</glyph>
<glyph name="finalnun-hb" format="2">
	<advance width="473.5"/>
	<unicode hex="05DF"/>
	<anchor x="118.6" y="0" name="bottom"/>
	<anchor x="-98.5" y="0" name="bottomleft"/>
	<anchor x="237.1" y="557.7" name="center"/>
	<anchor x="355.6" y="1114.4" name="top"/>
	<anchor x="138.5" y="1114.4" name="topleft"/>
	<note>
		afii57679
	</note>
	<outline>
		<contour>
			<point x="-102.1" y="-492" type="line"/>
			<point x="164.4" y="-492" type="line"/>
			<point x="441.8" y="814.7" type="line" smooth="yes"/>
			<point x="468.3" y="938.1"/>
			<point x="483.5" y="1076.5"/>
			<point x="483.5" y="1193.5" type="curve" smooth="yes"/>
			<point x="483.5" y="1231.4"/>
			<point x="481.4" y="1265.4"/>
			<point x="479" y="1290" type="curve"/>
			<point x="220.6" y="1290" type="line"/>
			<point x="226.9" y="1274.3"/>
			<point x="229.3" y="1229.7"/>
			<point x="229.3" y="1213.2" type="curve" smooth="yes"/>
			<point x="229.3" y="1153.2"/>
			<point x="214.4" y="1000.4"/>
			<point x="179.5" y="835.7" type="curve" smooth="yes"/>
		</contour>
	</outline>
</glyph>
<glyph name="nun-hb" format="2">
	<advance width="714.6"/>
	<unicode hex="05E0"/>
	<anchor x="239.3" y="0" name="bottom"/>
	<anchor x="-98.5" y="0" name="bottomleft"/>
	<anchor x="357.8" y="557.7" name="center"/>
	<anchor x="476.3" y="1114.4" name="top"/>
	<anchor x="138.5" y="1114.4" name="topleft"/>
	<note>
		afii57680
	</note>
	<outline>
		<contour>
			<point x="-65.1" y="0" type="line"/>
			<point x="456.7" y="0" type="line"/>
			<point x="475.3" y="34.7" type="line" smooth="yes"/>
			<point x="508.3" y="93.5"/>
			<point x="554.4" y="234.4"/>
			<point x="579.7" y="354.2" type="curve" smooth="yes"/>
			<point x="698.4" y="916.1" type="line" smooth="yes"/>
			<point x="709.9" y="971.3"/>
			<point x="718.4" y="1038.2"/>
			<point x="718.4" y="1084.4" type="curve" smooth="yes"/>
			<point x="718.4" y="1146.6"/>
			<point x="701.4" y="1193.6"/>
			<point x="670.6" y="1228.5" type="curve" smooth="yes"/>
			<point x="616.8" y="1288.3"/>
			<point x="523.5" y="1310"/>
			<point x="414.8" y="1310" type="curve" smooth="yes"/>
			<point x="385.1" y="1310"/>
			<point x="311.3" y="1307.8"/>
			<point x="257.9" y="1291.5" type="curve"/>
			<point x="227" y="1064.9" type="line"/>
			<point x="288.1" y="1083.6"/>
			<point x="332.7" y="1087.5"/>
			<point x="360.3" y="1087.5" type="curve" smooth="yes"/>
			<point x="393.1" y="1087.5"/>
			<point x="414.8" y="1081.7"/>
			<point x="428.9" y="1071.4" type="curve" smooth="yes"/>
			<point x="442.3" y="1061.1"/>
			<point x="448.1" y="1047"/>
			<point x="448.1" y="1028.7" type="curve" smooth="yes"/>
			<point x="448.1" y="1003.5"/>
			<point x="443" y="969"/>
			<point x="436.1" y="937.1" type="curve" smooth="yes"/>
			<point x="334.2" y="455" type="line" smooth="yes"/>
			<point x="314" y="359.7"/>
			<point x="284.5" y="266.2"/>
			<point x="261.5" y="214.9" type="curve"/>
			<point x="-19.8" y="214.9" type="line"/>
		</contour>
	</outline>
</glyph>
<glyph name="samekh-hb" format="2">
	<advance width="1010.7"/>
	<unicode hex="05E1"/>
	<anchor x="387.2" y="0" name="bottom"/>
	<anchor x="-98.5" y="0" name="bottomleft"/>
	<anchor x="518.3" y="606.7" name="center"/>
	<anchor x="624.2" y="1114.4" name="top"/>
	<anchor x="138.5" y="1114.4" name="topleft"/>
	<note>
		afii57681
	</note>
	<outline>
		<contour>
			<point x="398.6" y="-20" type="curve" smooth="yes"/>
			<point x="686.8" y="-20"/>
			<point x="869.3" y="271.7"/>
			<point x="943.3" y="597.4" type="curve" smooth="yes"/>
			<point x="965.4" y="696.7"/>
			<point x="976.6" y="791.8"/>
			<point x="976.6" y="881.2" type="curve" smooth="yes"/>
			<point x="976.6" y="1129.3"/>
			<point x="859.3" y="1310"/>
			<point x="668" y="1310" type="curve" smooth="yes"/>
			<point x="462.5" y="1310"/>
			<point x="346.6" y="1301.5"/>
			<point x="227.1" y="1284.1" type="curve"/>
			<point x="190.9" y="1068.7" type="line"/>
			<point x="234.3" y="1071.4"/>
			<point x="277.3" y="1075.1"/>
			<point x="320.7" y="1077.8" type="curve"/>
			<point x="270.9" y="1038.4"/>
			<point x="205.6" y="954.8"/>
			<point x="163.4" y="869.4" type="curve" smooth="yes"/>
			<point x="97.7" y="735.3"/>
			<point x="60" y="539.3"/>
			<point x="60" y="399.5" type="curve" smooth="yes"/>
			<point x="60" y="157"/>
			<point x="171" y="-20"/>
		</contour>
		<contour>
			<point x="404.3" y="197.4" type="curve" smooth="yes"/>
			<point x="345.6" y="197.4"/>
			<point x="316.2" y="245"/>
			<point x="316.2" y="325.5" type="curve" smooth="yes"/>
			<point x="316.2" y="400.7"/>
			<point x="332.1" y="509.7"/>
			<point x="361.1" y="642.7" type="curve" smooth="yes"/>
			<point x="404.9" y="844.3"/>
			<point x="461.3" y="986.2"/>
			<point x="561" y="1085" type="curve"/>
			<point x="588.5" y="1091.6"/>
			<point x="603" y="1092.6"/>
			<point x="645.2" y="1092.6" type="curve" smooth="yes"/>
			<point x="669" y="1092.6"/>
			<point x="686" y="1082.1"/>
			<point x="697.7" y="1065.5" type="curve" smooth="yes"/>
			<point x="716.4" y="1039.3"/>
			<point x="722.5" y="997.2"/>
			<point x="722.5" y="954.7" type="curve" smooth="yes"/>
			<point x="722.5" y="835.2"/>
			<point x="677" y="595.3"/>
			<point x="616.8" y="442.8" type="curve" smooth="yes"/>
			<point x="572.9" y="319.4"/>
			<point x="506.4" y="197.4"/>
		</contour>
	</outline>
</glyph>
<glyph name="ayin-hb" format="2">
	<advance width="972.7"/>
	<unicode hex="05E2"/>
	<anchor x="368.2" y="0" name="bottom"/>
	<anchor x="-98.5" y="0" name="bottomleft"/>
	<anchor x="486.7" y="557.7" name="center"/>
	<anchor x="605.2" y="1114.4" name="top"/>
	<anchor x="138.5" y="1114.4" name="topleft"/>
	<note>
		afii57682
	</note>
	<outline>
		<contour>
			<point x="-77" y="-60.2" type="line"/>
			<point x="226.1" y="-6.3" type="line"/>
			<point x="450.8" y="34.7"/>
			<point x="593.7" y="123"/>
			<point x="691.8" y="248.6" type="curve" smooth="yes"/>
			<point x="822.6" y="391.3"/>
			<point x="881" y="594.4"/>
			<point x="914.1" y="701.2" type="curve" smooth="yes"/>
			<point x="1087.2" y="1290" type="line"/>
			<point x="818.3" y="1290" type="line"/>
			<point x="636" y="677" type="line" smooth="yes"/>
			<point x="617.6" y="615.9"/>
			<point x="591.1" y="555.6"/>
			<point x="563.9" y="508.4" type="curve" smooth="yes"/>
			<point x="524.7" y="431.5"/>
			<point x="477.4" y="366.1"/>
			<point x="416.2" y="319.4" type="curve"/>
			<point x="449.1" y="708.1" type="line"/>
			<point x="463.6" y="1290" type="line"/>
			<point x="201" y="1290" type="line"/>
			<point x="185.4" y="62.2" type="line"/>
			<point x="285.7" y="217.4" type="line"/>
			<point x="229" y="208.5"/>
			<point x="191.9" y="200.3"/>
			<point x="146.1" y="191.4" type="curve" smooth="yes"/>
			<point x="-31.7" y="157.8" type="line"/>
		</contour>
	</outline>
</glyph>
<glyph name="pe-hb" format="2">
	<advance width="975.9"/>
	<unicode hex="05E4"/>
	<anchor x="369.8" y="0" name="bottom"/>
	<anchor x="-98.5" y="0" name="bottomleft"/>
	<anchor x="544.5" y="841.9" name="center"/>
	<anchor x="606.8" y="1114.4" name="top"/>
	<anchor x="138.5" y="1114.4" name="topleft"/>
	<note>
		afii57684
	</note>
	<outline>
		<contour>
			<point x="349.5" y="-20" type="curve" smooth="yes"/>
			<point x="514.9" y="-20"/>
			<point x="618" y="21.8"/>
			<point x="719.8" y="153" type="curve" smooth="yes"/>
			<point x="868.7" y="344.7"/>
			<point x="953" y="671.8"/>
			<point x="953" y="883.5" type="curve" smooth="yes"/>
			<point x="953" y="1124.7"/>
			<point x="847.6" y="1310"/>
			<point x="614.3" y="1310" type="curve" smooth="yes"/>
			<point x="523.8" y="1310"/>
			<point x="436.8" y="1283.3"/>
			<point x="360.7" y="1234.1" type="curve" smooth="yes"/>
			<point x="246.9" y="1161"/>
			<point x="158.6" y="1037.4"/>
			<point x="123.9" y="875.1" type="curve" smooth="yes"/>
			<point x="113.7" y="827.3"/>
			<point x="109.4" y="784.9"/>
			<point x="109.4" y="749.4" type="curve" smooth="yes"/>
			<point x="109.4" y="579"/>
			<point x="208.1" y="454.3"/>
			<point x="387.5" y="433.3" type="curve" smooth="yes"/>
			<point x="431.7" y="426.3" type="line"/>
			<point x="526.7" y="636.4" type="line"/>
			<point x="500.8" y="638.5" type="line" smooth="yes"/>
			<point x="412.1" y="644.1"/>
			<point x="379.5" y="668.3"/>
			<point x="379.5" y="759.9" type="curve" smooth="yes"/>
			<point x="379.5" y="797.3"/>
			<point x="388.9" y="847.9"/>
			<point x="400.6" y="885.6" type="curve" smooth="yes"/>
			<point x="417.2" y="941.6"/>
			<point x="445.9" y="990.4"/>
			<point x="477.5" y="1026.8" type="curve" smooth="yes"/>
			<point x="514.5" y="1069.8"/>
			<point x="558.9" y="1092.6"/>
			<point x="605.4" y="1092.6" type="curve" smooth="yes"/>
			<point x="684.2" y="1092.6"/>
			<point x="704.5" y="1025.2"/>
			<point x="704.5" y="947.6" type="curve" smooth="yes"/>
			<point x="704.5" y="884.9"/>
			<point x="689.7" y="789.7"/>
			<point x="665.3" y="679.3" type="curve" smooth="yes"/>
			<point x="631.4" y="525.1"/>
			<point x="587.6" y="393.4"/>
			<point x="544.1" y="318.7" type="curve" smooth="yes"/>
			<point x="505.6" y="254.2"/>
			<point x="453.4" y="197.4"/>
			<point x="389.9" y="197.4" type="curve" smooth="yes"/>
			<point x="304" y="197.4"/>
			<point x="214.4" y="207.3"/>
			<point x="88.3" y="230.4" type="curve"/>
			<point x="50.4" y="8.4" type="line"/>
			<point x="93.1" y="2" type="line" smooth="yes"/>
			<point x="137.2" y="-5.2"/>
			<point x="251.9" y="-20"/>
		</contour>
	</outline>
</glyph>
<glyph name="finaltsadi-hb" format="2">
	<advance width="948.5"/>
	<unicode hex="05E5"/>
	<anchor x="355.9" y="0" name="bottom"/>
	<anchor x="-98.5" y="0" name="bottomleft"/>
	<anchor x="474.4" y="557.7" name="center"/>
	<anchor x="592.9" y="1114.4" name="top"/>
	<anchor x="138.5" y="1114.4" name="topleft"/>
	<note>
		afii57685
	</note>
	<outline>
		<contour>
			<point x="-5.6" y="-492" type="line"/>
			<point x="260.2" y="-492" type="line"/>
			<point x="485.3" y="569.4" type="line"/>
			<point x="302.9" y="435.9" type="line"/>
			<point x="357.6" y="434.1"/>
			<point x="406.7" y="433"/>
			<point x="450.9" y="433.3" type="curve" smooth="yes"/>
			<point x="675.2" y="440.8"/>
			<point x="792.4" y="484.4"/>
			<point x="864.9" y="595.1" type="curve" smooth="yes"/>
			<point x="908" y="660.6"/>
			<point x="929" y="737.3"/>
			<point x="942.2" y="799.7" type="curve" smooth="yes"/>
			<point x="1045.3" y="1290" type="line"/>
			<point x="779.5" y="1290" type="line"/>
			<point x="678.8" y="817.5" type="line" smooth="yes"/>
			<point x="652.1" y="693.7"/>
			<point x="602.4" y="636.9"/>
			<point x="495.9" y="619.8" type="curve" smooth="yes"/>
			<point x="481.9" y="619.8"/>
			<point x="377.2" y="619.8"/>
			<point x="310.7" y="681" type="curve"/>
			<point x="450.3" y="501.1" type="line"/>
			<point x="476.4" y="1290" type="line"/>
			<point x="184.7" y="1290" type="line"/>
			<point x="222.4" y="576.6" type="line"/>
		</contour>
	</outline>
</glyph>
<glyph name="qof-hb" format="2">
	<advance width="1056.7"/>
	<unicode hex="05E7"/>
	<anchor x="410" y="0" name="bottom"/>
	<anchor x="-98.5" y="0" name="bottomleft"/>
	<anchor x="516.1" y="764.2" name="center"/>
	<anchor x="647" y="1114.4" name="top"/>
	<anchor x="138.5" y="1114.4" name="topleft"/>
	<note>
		afii57687
	</note>
	<outline>
		<contour>
			<point x="350.8" y="0" type="curve"/>
			<point x="605.5" y="0" type="line"/>
			<point x="611.6" y="24" type="line" smooth="yes"/>
			<point x="645.5" y="157.3"/>
			<point x="683" y="241.2"/>
			<point x="740.4" y="362.2" type="curve" smooth="yes"/>
			<point x="813.5" y="515.5"/>
			<point x="846.5" y="586.7"/>
			<point x="885.3" y="671.3" type="curve" smooth="yes"/>
			<point x="1093.8" y="1114.3" type="line"/>
			<point x="1128.3" y="1290" type="line"/>
			<point x="248" y="1290" type="line"/>
			<point x="202.3" y="1075.1" type="line"/>
			<point x="793.7" y="1075.1" type="line"/>
			<point x="522.9" y="513.9" type="line"/>
			<point x="432.1" y="325.7"/>
			<point x="370.8" y="174.3"/>
			<point x="350.6" y="95.9" type="curve" smooth="yes"/>
			<point x="345.5" y="73.6"/>
			<point x="343.5" y="56.5"/>
			<point x="342.9" y="43.6" type="curve" smooth="yes"/>
			<point x="342.3" y="19.4"/>
			<point x="348.3" y="6"/>
		</contour>
		<contour>
			<point x="-130.4" y="-493.4" type="line"/>
			<point x="136.8" y="-493.4" type="line"/>
			<point x="404.9" y="772.3" type="line"/>
			<point x="138.4" y="772.3" type="line"/>
		</contour>
	</outline>
</glyph>
<glyph name="resh-hb" format="2">
	<advance width="822"/>
	<unicode hex="05E8"/>
	<anchor x="292.5" y="0" name="bottom"/>
	<anchor x="-98.5" y="0" name="bottomleft"/>
	<anchor x="294.3" y="623.5" name="center"/>
	<anchor x="529.5" y="1114.4" name="top"/>
	<anchor x="138.5" y="1114.4" name="topleft"/>
	<note>
		afii57688
	</note>
	<outline>
		<contour>
			<point x="344.4" y="0" type="line"/>
			<point x="610.9" y="0" type="line"/>
			<point x="791.9" y="850.6" type="line" smooth="yes"/>
			<point x="807.3" y="923.6"/>
			<point x="818.5" y="995.4"/>
			<point x="818.5" y="1045.7" type="curve" smooth="yes"/>
			<point x="818.5" y="1105.1"/>
			<point x="801.6" y="1158.2"/>
			<point x="768.8" y="1200.7" type="curve" smooth="yes"/>
			<point x="756.3" y="1218.8"/>
			<point x="740.5" y="1235.4"/>
			<point x="721.4" y="1248.7" type="curve" smooth="yes"/>
			<point x="664.2" y="1290.9"/>
			<point x="575.5" y="1310"/>
			<point x="452.2" y="1310" type="curve" smooth="yes"/>
			<point x="386.7" y="1310"/>
			<point x="301.2" y="1305.6"/>
			<point x="199.9" y="1295.1" type="curve"/>
			<point x="172.1" y="1077.2" type="line"/>
			<point x="234.3" y="1083.5"/>
			<point x="353.3" y="1093.1"/>
			<point x="403.6" y="1093.1" type="curve" smooth="yes"/>
			<point x="425.5" y="1093.1"/>
			<point x="464.6" y="1091.6"/>
			<point x="493.4" y="1084.9" type="curve" smooth="yes"/>
			<point x="508.6" y="1081.4"/>
			<point x="521.6" y="1075.6"/>
			<point x="528.9" y="1069.2" type="curve" smooth="yes"/>
			<point x="543.3" y="1056.5"/>
			<point x="546.8" y="1023.1"/>
			<point x="546.8" y="1000" type="curve" smooth="yes"/>
			<point x="546.8" y="967.6"/>
			<point x="538.2" y="919.7"/>
			<point x="528.9" y="872.3" type="curve" smooth="yes"/>
		</contour>
	</outline>
</glyph>
<glyph name="shin-hb" format="2">
	<advance width="1290.9"/>
	<unicode hex="05E9"/>
	<anchor x="527.3" y="0" name="bottom"/>
	<anchor x="-98.5" y="0" name="bottomleft"/>
	<anchor x="674.9" y="416.5" name="center"/>
	<anchor x="764.3" y="1114.4" name="top"/>
	<anchor x="397.3" y="1347.6" name="topleft"/>
	<anchor x="1389.4" y="1114.4" name="topright"/>
	<note>
		afii57689
	</note>
	<outline>
		<contour>
			<point x="18.7" y="0" type="line"/>
			<point x="390.4" y="0" type="line" smooth="yes"/>
			<point x="535.7" y="0"/>
			<point x="653.9" y="9.8"/>
			<point x="756.2" y="53.5" type="curve" smooth="yes"/>
			<point x="840.7" y="88.2"/>
			<point x="930.3" y="151.6"/>
			<point x="990.7" y="217.6" type="curve" smooth="yes"/>
			<point x="1109.3" y="332.5"/>
			<point x="1176" y="524.8"/>
			<point x="1227.8" y="701.4" type="curve" smooth="yes"/>
			<point x="1400.1" y="1290" type="line"/>
			<point x="1133.8" y="1290" type="line"/>
			<point x="965.3" y="719.6" type="line" smooth="yes"/>
			<point x="929.8" y="600.9"/>
			<point x="884.2" y="475"/>
			<point x="810.4" y="389" type="curve" smooth="yes"/>
			<point x="709.6" y="266"/>
			<point x="569.7" y="215.1"/>
			<point x="418.2" y="215.1" type="curve" smooth="yes"/>
			<point x="313.4" y="215.1" type="line"/>
			<point x="376.1" y="556.3" type="line"/>
			<point x="249.6" y="475.4" type="line"/>
			<point x="330" y="432.9"/>
			<point x="334.1" y="433.1"/>
			<point x="383" y="434" type="curve" smooth="yes"/>
			<point x="507.7" y="447.5"/>
			<point x="619.4" y="479.6"/>
			<point x="695.2" y="566.3" type="curve" smooth="yes"/>
			<point x="749.5" y="629.8"/>
			<point x="781.4" y="711.2"/>
			<point x="807.6" y="799.4" type="curve" smooth="yes"/>
			<point x="948.2" y="1290" type="line"/>
			<point x="684.3" y="1290" type="line"/>
			<point x="554.9" y="843.5" type="line" smooth="yes"/>
			<point x="531.7" y="766.4"/>
			<point x="506.5" y="716"/>
			<point x="478" y="680.6" type="curve" smooth="yes"/>
			<point x="446.8" y="643.1"/>
			<point x="412.6" y="627.5"/>
			<point x="381.4" y="617.3" type="curve" smooth="yes"/>
			<point x="367" y="616.4"/>
			<point x="342.8" y="625.3"/>
			<point x="326.7" y="631" type="curve"/>
			<point x="351.3" y="569" type="line"/>
			<point x="453" y="1290" type="line"/>
			<point x="188.6" y="1290" type="line"/>
		</contour>
	</outline>
</glyph>
<glyph name="tav-hb" format="2">
	<advance width="1065"/>
	<unicode hex="05EA"/>
	<anchor x="414" y="0" name="bottom"/>
	<anchor x="-98.5" y="0" name="bottomleft"/>
	<anchor x="598.1" y="614.4" name="center"/>
	<anchor x="651" y="1114.4" name="top"/>
	<anchor x="138.5" y="1114.4" name="topleft"/>
	<note>
		afii57690
	</note>
	<outline>
		<contour>
			<point x="87.7" y="-20.3" type="curve" smooth="yes"/>
			<point x="321.4" y="-20.3"/>
			<point x="365.7" y="117.1"/>
			<point x="419.1" y="353.1" type="curve" smooth="yes"/>
			<point x="581.6" y="1087.5" type="line"/>
			<point x="629.6" y="1091.1"/>
			<point x="685.5" y="1091.7"/>
			<point x="700.4" y="1091.7" type="curve" smooth="yes"/>
			<point x="719.9" y="1091.7"/>
			<point x="746.7" y="1086.6"/>
			<point x="765.3" y="1071" type="curve" smooth="yes"/>
			<point x="782.7" y="1056"/>
			<point x="791" y="1033.9"/>
			<point x="791" y="997" type="curve" smooth="yes"/>
			<point x="791" y="967.7"/>
			<point x="784.6" y="924.9"/>
			<point x="773.2" y="872.3" type="curve" smooth="yes"/>
			<point x="588.7" y="0" type="line"/>
			<point x="855.9" y="0" type="line"/>
			<point x="1036.9" y="850.6" type="line" smooth="yes"/>
			<point x="1053.1" y="927.3"/>
			<point x="1064" y="998.1"/>
			<point x="1064" y="1050.6" type="curve" smooth="yes"/>
			<point x="1064" y="1130.9"/>
			<point x="1037.2" y="1195.4"/>
			<point x="980.4" y="1239.1" type="curve" smooth="yes"/>
			<point x="908.7" y="1297"/>
			<point x="785.1" y="1310"/>
			<point x="669.7" y="1310" type="curve" smooth="yes"/>
			<point x="494.1" y="1310"/>
			<point x="331.4" y="1281.2"/>
			<point x="238.9" y="1264.9" type="curve"/>
			<point x="210.1" y="1045.6" type="line"/>
			<point x="243.7" y="1055.9"/>
			<point x="276.3" y="1059.3"/>
			<point x="309.2" y="1061.7" type="curve"/>
			<point x="154.7" y="374.1" type="line" smooth="yes"/>
			<point x="141.1" y="315"/>
			<point x="130.1" y="292.2"/>
			<point x="116.1" y="270.4" type="curve" smooth="yes"/>
			<point x="86.1" y="222.1"/>
			<point x="67.1" y="203.7"/>
			<point x="14" y="203" type="curve" smooth="yes"/>
			<point x="-2.2" y="203"/>
			<point x="-19.4" y="207.4"/>
			<point x="-35.5" y="213.8" type="curve"/>
			<point x="-64.6" y="11.5" type="line"/>
			<point x="-18.7" y="-11"/>
			<point x="26.9" y="-20.3"/>
		</contour>
	</outline>
</glyph>
<glyph name="uni1C85" format="2">
	<advance width="1376"/>
	<unicode hex="1C85"/>
	<anchor x="573" y="0" name="bottom"/>
	<anchor x="803" y="1085" name="top"/>
	<outline>
		<contour>
			<point x="-12" y="0" type="line"/>
			<point x="233" y="0" type="line"/>
			<point x="426" y="905" type="line"/>
			<point x="639" y="905" type="line"/>
			<point x="446" y="0" type="line"/>
			<point x="692" y="0" type="line"/>
			<point x="885" y="905" type="line"/>
			<point x="1098" y="905" type="line"/>
			<point x="907" y="0" type="line"/>
			<point x="1153" y="0" type="line"/>
			<point x="1391" y="1116" type="line"/>
			<point x="225" y="1116" type="line"/>
		</contour>
	</outline>
</glyph>
<glyph name="dagesh-hb.small" format="2">
	<advance width="0"/>
	<anchor x="-15" y="488" name="_center"/>
	<note>
		afii57807
	</note>
	<outline>
		<contour>
			<point x="-20.8" y="424.2" type="curve" smooth="yes"/>
			<point x="24.1" y="424.2"/>
			<point x="51" y="454.4"/>
			<point x="51" y="495.8" type="curve" smooth="yes"/>
			<point x="51" y="530.2"/>
			<point x="27.7" y="551.8"/>
			<point x="-11.2" y="551.8" type="curve" smooth="yes"/>
			<point x="-54.4" y="551.8"/>
			<point x="-80.6" y="521.1"/>
			<point x="-80.6" y="479.3" type="curve" smooth="yes"/>
			<point x="-80.6" y="444.1"/>
			<point x="-59.7" y="424.2"/>
		</contour>
	</outline>
</glyph>
<glyph name="uni0268dotless" format="2">
	<advance width="457"/>
	<outline>
		<contour>
			<point x="-12" y="473" type="line"/>
			<point x="434" y="473" type="line"/>
			<point x="477" y="670" type="line"/>
			<point x="31" y="670" type="line"/>
		</contour>
		<component base="idotless"/>
	</outline>
</glyph>
